<svg xmlns="http://www.w3.org/2000/svg" viewBox="0 0 1650 900" width="100%" height="100%" style="background-color: #ffffff; font-family: 'Segoe UI', -apple-system, BlinkMacSystemFont, Roboto, Helvetica, Arial, sans-serif;">
  <defs>
    <!-- Arrow marker definition -->
    <marker id="arrow" viewBox="0 0 10 10" refX="8" refY="5" markerWidth="6" markerHeight="6" orient="auto-start-reverse">
      <path d="M 0 1.5 L 8 5 L 0 8.5 z" fill="#64748b" />
    </marker>
    <marker id="arrow-dashed" viewBox="0 0 10 10" refX="8" refY="5" markerWidth="6" markerHeight="6" orient="auto-start-reverse">
      <path d="M 0 1.5 L 8 5 L 0 8.5 z" fill="#94a3b8" />
    </marker>
    <!-- Shadow effect for nodes -->
    <filter id="shadow" x="-5%" y="-5%" width="110%" height="115%" filterUnits="userSpaceOnUse">
      <feDropShadow dx="1" dy="2" stdDeviation="2" flood-color="#0f172a" flood-opacity="0.08" />
    </filter>
  </defs>

  <!-- BACKGROUND GRID (Very subtle for design structure but clean) -->
  <rect width="100%" height="100%" fill="#ffffff" />
  <g opacity="0.15">
    <path d="M 0,50 L 1650,50 M 0,100 L 1650,100 M 0,150 L 1650,150 M 0,200 L 1650,200 M 0,250 L 1650,250 M 0,300 L 1650,300 M 0,350 L 1650,350 M 0,400 L 1650,400 M 0,450 L 1650,450 M 0,500 L 1650,500 M 0,550 L 1650,550 M 0,600 L 1650,600 M 0,650 L 1650,650 M 0,700 L 1650,700 M 0,750 L 1650,750 M 0,800 L 1650,800 M 0,850 L 1650,850" fill="none" stroke="#cbd5e1" stroke-width="0.5" />
    <path d="M 50,0 L 50,900 M 100,0 L 100,900 M 150,0 L 150,900 M 200,0 L 200,900 M 250,0 L 250,900 M 300,0 L 300,900 M 350,0 L 350,900 M 400,0 L 400,900 M 450,0 L 450,900 M 500,0 L 500,900 M 550,0 L 550,900 M 600,0 L 600,900 M 650,0 L 650,900 M 700,0 L 700,900 M 750,0 L 750,900 M 800,0 L 800,900 M 850,0 L 850,900 M 900,0 L 900,900 M 950,0 L 950,900 M 1000,0 L 1000,900 M 1050,0 L 1050,900 M 1100,0 L 1100,900 M 1150,0 L 1150,900 M 1200,0 L 1200,900 M 1250,0 L 1250,900 M 1300,0 L 1300,900 M 1350,0 L 1350,900 M 1400,0 L 1400,900 M 1450,0 L 1450,900 M 1500,0 L 1500,900 M 1550,0 L 1550,900 M 1600,0 L 1600,900" fill="none" stroke="#cbd5e1" stroke-width="0.5" />
  </g>

  <!-- GROUPING BOUNDARIES -->
  <!-- Audio Assistant & RAG Agent Group -->
  <rect x="330" y="30" width="1285" height="400" rx="12" fill="#f8fafc" stroke="#e2e8f0" stroke-width="1.5" stroke-dasharray="6 4" />
  <text x="350" y="55" fill="#475569" font-size="13" font-weight="600" letter-spacing="0.5">ZONE I : ASSISTANT VOCAL INTELLIGENT (VOIX &amp; RAG)</text>

  <!-- Knowledge Ingestion Group -->
  <rect x="990" y="440" width="625" height="180" rx="12" fill="#f8fafc" stroke="#e2e8f0" stroke-width="1.5" stroke-dasharray="6 4" />
  <text x="1010" y="465" fill="#475569" font-size="13" font-weight="600" letter-spacing="0.5">ZONE II : ALIMENTATION DE LA BASE CONNAISSANCES</text>

  <!-- Image Processing Group -->
  <rect x="330" y="635" width="1285" height="235" rx="12" fill="#f8fafc" stroke="#e2e8f0" stroke-width="1.5" stroke-dasharray="6 4" />
  <text x="350" y="660" fill="#475569" font-size="13" font-weight="600" letter-spacing="0.5">ZONE III : TRAITEMENT &amp; VALIDATION VISUELLE DES REÇUS</text>


  <!-- ==================== CONNECTORS / ARROWS ==================== -->
  
  <!-- Main entry to Switch -->
  <path d="M 175 490 L 210 490" fill="none" stroke="#64748b" stroke-width="2" marker-end="url(#arrow)" />

  <!-- Switch to Download Audio (Top path) -->
  <path d="M 290 465 C 290 220, 310 220, 360 220" fill="none" stroke="#3b82f6" stroke-width="2" marker-end="url(#arrow)" />
  <text x="295" y="320" fill="#1e3a8a" font-size="11" font-weight="600" transform="rotate(-45, 295, 320)">Flux Audio</text>

  <!-- Switch to Download Image (Bottom path) -->
  <path d="M 290 515 C 290 760, 310 760, 360 760" fill="none" stroke="#6366f1" stroke-width="2" marker-end="url(#arrow)" />
  <text x="295" y="650" fill="#312e81" font-size="11" font-weight="600" transform="rotate(45, 295, 650)">Flux Reçu</text>

  <!-- Top Path Connectors -->
  <path d="M 520 220 L 550 220" fill="none" stroke="#64748b" stroke-width="2" marker-end="url(#arrow)" />
  <path d="M 710 220 L 740 220" fill="none" stroke="#64748b" stroke-width="2" marker-end="url(#arrow)" />
  <path d="M 900 220 L 930 220" fill="none" stroke="#64748b" stroke-width="2" marker-end="url(#arrow)" />
  
  <!-- AI Agent bi-directional Simple Memory -->
  <path d="M 1000 180 L 1000 145" fill="none" stroke="#64748b" stroke-width="1.5" marker-end="url(#arrow)" />
  <path d="M 1020 145 L 1020 180" fill="none" stroke="#64748b" stroke-width="1.5" marker-end="url(#arrow)" />

  <!-- AI Agent to Tools (Supabase, register_commande) -->
  <!-- Agent to Supabase Vector Store -->
  <path d="M 1010 260 L 1010 315" fill="none" stroke="#475569" stroke-width="1.5" stroke-dasharray="4 3" marker-end="url(#arrow)" />
  <text x="1015" y="295" fill="#475569" font-size="10" font-style="italic">RAG Query</text>

  <!-- Agent to enregistrer_commande -->
  <path d="M 980 260 C 980 295, 830 295, 830 315" fill="none" stroke="#475569" stroke-width="1.5" stroke-dasharray="4 3" marker-end="url(#arrow)" />
  <text x="890" y="295" fill="#475569" font-size="10" font-style="italic">Action</text>

  <!-- enregistrer_commande tool writes to Supabase BDD -->
  <path d="M 910 355 L 930 355" fill="none" stroke="#64748b" stroke-width="1.5" marker-end="url(#arrow)" />

  <!-- AI Agent to Output components -->
  <path d="M 1090 220 L 1120 220" fill="none" stroke="#64748b" stroke-width="2" marker-end="url(#arrow)" />
  <path d="M 1280 220 L 1310 220" fill="none" stroke="#64748b" stroke-width="2" marker-end="url(#arrow)" />
  <path d="M 1470 220 L 1500 220" fill="none" stroke="#64748b" stroke-width="2" marker-end="url(#arrow)" />

  <!-- Ingestion Flow Connectors -->
  <!-- Form Sub -> Data Loader & Embeddings -->
  <path d="M 1115 540 C 1115 505, 1140 470, 1170 470" fill="none" stroke="#64748b" stroke-width="1.5" marker-end="url(#arrow)" />
  <path d="M 1115 540 C 1115 570, 1140 570, 1170 570" fill="none" stroke="#64748b" stroke-width="1.5" marker-end="url(#arrow)" />
  <!-- Data Loader & Embeddings -> Vector Store Ingest -->
  <path d="M 1330 470 C 1360 470, 1360 500, 1370 515" fill="none" stroke="#64748b" stroke-width="1.5" marker-end="url(#arrow)" />
  <path d="M 1330 570 C 1360 570, 1360 540, 1370 540" fill="none" stroke="#64748b" stroke-width="1.5" marker-end="url(#arrow)" />
  <!-- Vector Store Ingest to Supabase Vector Store -->
  <path d="M 1435 500 C 1435 355, 1170 355, 1090 355" fill="none" stroke="#059669" stroke-width="2" stroke-dasharray="4 3" marker-end="url(#arrow)" />
  <text x="1210" y="347" fill="#047857" font-size="11" font-weight="600">Alimentation des Documents (RAG)</text>

  <!-- Bottom Path Connectors -->
  <path d="M 520 760 L 550 760" fill="none" stroke="#64748b" stroke-width="2" marker-end="url(#arrow)" />
  <path d="M 710 760 L 740 760" fill="none" stroke="#64748b" stroke-width="2" marker-end="url(#arrow)" />
  <path d="M 870 760 L 920 760" fill="none" stroke="#64748b" stroke-width="2" marker-end="url(#arrow)" />

  <!-- IF branches (True & False) -->
  <!-- True branch (Top) -->
  <path d="M 1070 760 C 1070 700, 1080 700, 1100 700" fill="none" stroke="#16a34a" stroke-width="2" marker-end="url(#arrow)" />
  <text x="1075" y="692" fill="#15803d" font-size="11" font-weight="600">Vrai (Valide)</text>
  <!-- False branch (Bottom) -->
  <path d="M 1070 760 C 1070 820, 1080 820, 1100 820" fill="none" stroke="#dc2626" stroke-width="2" marker-end="url(#arrow)" />
  <text x="1075" y="835" fill="#b91c1c" font-size="11" font-weight="600">Faux (Invalide)</text>

  <!-- True branch: Update DB -> Send Valid Notification -->
  <path d="M 1260 700 L 1290 700" fill="none" stroke="#16a34a" stroke-width="2" marker-end="url(#arrow)" />


  <!-- ==================== NODES ==================== -->

  <!-- 1. WHATSAPP TRIGGER -->
  <g filter="url(#shadow)" transform="translate(15, 450)">
    <rect width="160" height="80" rx="10" fill="#e8f5e9" stroke="#4caf50" stroke-width="2" />
    <circle cx="35" cy="40" r="18" fill="#4caf50" />
    <!-- WhatsApp Icon representation -->
    <path d="M 28 40 C 28 35, 31 32, 35 32 C 39 32, 42 35, 42 40 C 42 42, 41 44, 40 45 L 41 49 L 37 48 C 36 48.5, 35 48.7, 34 48.7 C 30 48.7, 28 45, 28 40 Z" fill="#ffffff" />
    <text x="65" y="38" fill="#1b5e20" font-size="12" font-weight="bold">WhatsApp Trigger</text>
    <text x="65" y="55" fill="#388e3c" font-size="10">Déclencheur WhatsApp</text>
  </g>

  <!-- 2. SWITCH NODE -->
  <g filter="url(#shadow)" transform="translate(210, 450)">
    <rect width="80" height="80" rx="40" fill="#f3e8ff" stroke="#a855f7" stroke-width="2" />
    <text x="40" y="42" fill="#5b21b6" font-size="13" font-weight="bold" text-anchor="middle">SWITCH</text>
    <text x="40" y="58" fill="#7c3aed" font-size="10" text-anchor="middle">Aiguillage</text>
  </g>


  <!-- ================ ZONE I: AUDIO PATH NODES ================ -->

  <!-- Download Media (Audio) -->
  <g filter="url(#shadow)" transform="translate(360, 180)">
    <rect width="160" height="80" rx="10" fill="#eff6ff" stroke="#3b82f6" stroke-width="1.5" />
    <text x="80" y="35" fill="#1e3a8a" font-size="12" font-weight="bold" text-anchor="middle">Download Media</text>
    <text x="80" y="52" fill="#2563eb" font-size="10" text-anchor="middle">Téléchargement audio</text>
    <rect x="10" y="10" width="16" height="16" rx="3" fill="#3b82f6" opacity="0.2" />
    <text x="18" y="22" fill="#1d4ed8" font-size="10" font-weight="bold" text-anchor="middle">↓</text>
  </g>

  <!-- Transcription (Groq) -->
  <g filter="url(#shadow)" transform="translate(550, 180)">
    <rect width="160" height="80" rx="10" fill="#fffbeb" stroke="#f59e0b" stroke-width="1.5" />
    <text x="80" y="35" fill="#78350f" font-size="12" font-weight="bold" text-anchor="middle">Groq HTTP API</text>
    <text x="80" y="52" fill="#d97706" font-size="10" text-anchor="middle">Transcription Whisper</text>
    <rect x="10" y="10" width="16" height="16" rx="3" fill="#f59e0b" opacity="0.2" />
    <text x="18" y="22" fill="#b45309" font-size="9" font-weight="bold" text-anchor="middle">🎙️</text>
  </g>

  <!-- LLM Chain (Gemini) -->
  <g filter="url(#shadow)" transform="translate(740, 180)">
    <rect width="160" height="80" rx="10" fill="#ede9fe" stroke="#8b5cf6" stroke-width="1.5" />
    <text x="80" y="35" fill="#3b0764" font-size="12" font-weight="bold" text-anchor="middle">Basic LLM Chain</text>
    <text x="80" y="52" fill="#6d28d9" font-size="10" text-anchor="middle">Gemini Pro (Parsing)</text>
    <rect x="10" y="10" width="16" height="16" rx="3" fill="#8b5cf6" opacity="0.2" />
    <text x="18" y="22" fill="#5b21b6" font-size="9" font-weight="bold" text-anchor="middle">⛓️</text>
  </g>

  <!-- AI Agent (Gemini) -->
  <g filter="url(#shadow)" transform="translate(930, 180)">
    <rect width="160" height="80" rx="10" fill="#e0e7ff" stroke="#4f46e5" stroke-width="2" />
    <text x="80" y="35" fill="#1e1b4b" font-size="13" font-weight="bold" text-anchor="middle">AI Agent</text>
    <text x="80" y="52" fill="#4338ca" font-size="10" text-anchor="middle">Gemini (Raisonnement)</text>
    <!-- Little robot badge -->
    <rect x="10" y="10" width="16" height="16" rx="3" fill="#4f46e5" opacity="0.2" />
    <text x="18" y="22" fill="#3730a3" font-size="9" font-weight="bold" text-anchor="middle">🤖</text>
  </g>

  <!-- Memory (Connected to AI Agent) -->
  <g filter="url(#shadow)" transform="translate(930, 65)">
    <rect width="160" height="80" rx="10" fill="#f8fafc" stroke="#64748b" stroke-width="1.5" />
    <text x="80" y="35" fill="#1e293b" font-size="12" font-weight="bold" text-anchor="middle">Simple Memory</text>
    <text x="80" y="52" fill="#475569" font-size="10" text-anchor="middle">Historique conversation</text>
    <rect x="10" y="10" width="16" height="16" rx="3" fill="#64748b" opacity="0.2" />
    <text x="18" y="22" fill="#334155" font-size="9" font-weight="bold" text-anchor="middle">💾</text>
  </g>

  <!-- Supabase Vector Store (Connected to AI Agent / Ingestion) -->
  <g filter="url(#shadow)" transform="translate(930, 315)">
    <rect width="160" height="80" rx="10" fill="#ecfdf5" stroke="#059669" stroke-width="1.5" />
    <text x="80" y="35" fill="#064e3b" font-size="12" font-weight="bold" text-anchor="middle">Supabase Vector</text>
    <text x="80" y="52" fill="#047857" font-size="10" text-anchor="middle">Base Vectorielle (RAG)</text>
    <rect x="10" y="10" width="16" height="16" rx="3" fill="#059669" opacity="0.2" />
    <text x="18" y="22" fill="#065f46" font-size="9" font-weight="bold" text-anchor="middle">🗄️</text>
  </g>

  <!-- Action Tool: enregistrer_commande -->
  <g filter="url(#shadow)" transform="translate(750, 315)">
    <rect width="160" height="80" rx="10" fill="#f8fafc" stroke="#64748b" stroke-width="1.5" />
    <text x="80" y="35" fill="#0f172a" font-size="11" font-weight="bold" text-anchor="middle">enregistrer_commande</text>
    <text x="80" y="52" fill="#475569" font-size="10" text-anchor="middle">Création de ligne BDD</text>
    <rect x="10" y="10" width="16" height="16" rx="3" fill="#64748b" opacity="0.2" />
    <text x="18" y="22" fill="#334155" font-size="9" font-weight="bold" text-anchor="middle">🛠️</text>
  </g>

  <!-- ElevenLabs (Voice generation) -->
  <g filter="url(#shadow)" transform="translate(1120, 180)">
    <rect width="160" height="80" rx="10" fill="#fffbeb" stroke="#d97706" stroke-width="1.5" />
    <text x="80" y="35" fill="#78350f" font-size="12" font-weight="bold" text-anchor="middle">ElevenLabs API</text>
    <text x="80" y="52" fill="#b45309" font-size="10" text-anchor="middle">Synthèse Vocale (Audio)</text>
    <rect x="10" y="10" width="16" height="16" rx="3" fill="#d97706" opacity="0.2" />
    <text x="18" y="22" fill="#78350f" font-size="9" font-weight="bold" text-anchor="middle">🔊</text>
  </g>

  <!-- Send Message (WhatsApp) -->
  <g filter="url(#shadow)" transform="translate(1310, 180)">
    <rect width="160" height="80" rx="10" fill="#e8f5e9" stroke="#4caf50" stroke-width="1.5" />
    <text x="80" y="35" fill="#1b5e20" font-size="12" font-weight="bold" text-anchor="middle">Send Message</text>
    <text x="80" y="52" fill="#2e7d32" font-size="10" text-anchor="middle">Retour WhatsApp (Vocal)</text>
    <rect x="10" y="10" width="16" height="16" rx="3" fill="#4caf50" opacity="0.2" />
    <text x="18" y="22" fill="#1b5e20" font-size="9" font-weight="bold" text-anchor="middle">💬</text>
  </g>

  <!-- Collecte de données (Google Sheets) -->
  <g filter="url(#shadow)" transform="translate(1500, 180)">
    <rect width="130" height="80" rx="10" fill="#e8f5e9" stroke="#2e7d32" stroke-width="1.5" />
    <text x="65" y="35" fill="#1b5e20" font-size="12" font-weight="bold" text-anchor="middle">Google Sheets</text>
    <text x="65" y="52" fill="#2e7d32" font-size="10" text-anchor="middle">Collecte de données</text>
    <rect x="10" y="10" width="16" height="16" rx="3" fill="#2e7d32" opacity="0.2" />
    <text x="18" y="22" fill="#1b5e20" font-size="9" font-weight="bold" text-anchor="middle">📊</text>
  </g>


  <!-- ================ ZONE II: KNOWLEDGE INGESTION NODES ================ -->

  <!-- Form Submission -->
  <g filter="url(#shadow)" transform="translate(1005, 500)">
    <rect width="110" height="80" rx="10" fill="#e0f2fe" stroke="#0284c7" stroke-width="1.5" />
    <text x="55" y="35" fill="#0369a1" font-size="11" font-weight="bold" text-anchor="middle">On Form Submit</text>
    <text x="55" y="52" fill="#0284c7" font-size="9" text-anchor="middle">Nouveau document</text>
    <rect x="8" y="8" width="14" height="14" rx="3" fill="#0284c7" opacity="0.2" />
    <text x="15" y="18" fill="#0369a1" font-size="8" font-weight="bold" text-anchor="middle">📝</text>
  </g>

  <!-- Embeddings Gemini -->
  <g filter="url(#shadow)" transform="translate(1170, 440)">
    <rect width="160" height="60" rx="8" fill="#ede9fe" stroke="#8b5cf6" stroke-width="1.2" />
    <text x="80" y="28" fill="#4c1d95" font-size="11" font-weight="bold" text-anchor="middle">Gemini Embeddings</text>
    <text x="80" y="42" fill="#6d28d9" font-size="9" text-anchor="middle">Vectorisation sémantique</text>
  </g>

  <!-- Default Data Loader -->
  <g filter="url(#shadow)" transform="translate(1170, 540)">
    <rect width="160" height="60" rx="8" fill="#f8fafc" stroke="#64748b" stroke-width="1.2" />
    <text x="80" y="28" fill="#0f172a" font-size="11" font-weight="bold" text-anchor="middle">Default Data Loader</text>
    <text x="80" y="42" fill="#475569" font-size="9" text-anchor="middle">Extraction de documents</text>
  </g>

  <!-- Ingestion Target Vector Store -->
  <g filter="url(#shadow)" transform="translate(1370, 500)">
    <rect width="130" height="80" rx="10" fill="#ecfdf5" stroke="#059669" stroke-width="1.2" />
    <text x="65" y="35" fill="#064e3b" font-size="11" font-weight="bold" text-anchor="middle">Supabase Store</text>
    <text x="65" y="52" fill="#047857" font-size="9" text-anchor="middle">Indexation finale</text>
    <rect x="8" y="8" width="14" height="14" rx="3" fill="#059669" opacity="0.2" />
    <text x="15" y="18" fill="#065f46" font-size="8" font-weight="bold" text-anchor="middle">➕</text>
  </g>


  <!-- ================ ZONE III: IMAGE PATH NODES ================ -->

  <!-- Download Media (Image) -->
  <g filter="url(#shadow)" transform="translate(360, 720)">
    <rect width="160" height="80" rx="10" fill="#eff6ff" stroke="#3b82f6" stroke-width="1.5" />
    <text x="80" y="35" fill="#1e3a8a" font-size="12" font-weight="bold" text-anchor="middle">Download Media</text>
    <text x="80" y="52" fill="#2563eb" font-size="10" text-anchor="middle">Téléchargement image</text>
    <rect x="10" y="10" width="16" height="16" rx="3" fill="#3b82f6" opacity="0.2" />
    <text x="18" y="22" fill="#1d4ed8" font-size="10" font-weight="bold" text-anchor="middle">↓</text>
  </g>

  <!-- Analyze Image (Vision) -->
  <g filter="url(#shadow)" transform="translate(550, 720)">
    <rect width="160" height="80" rx="10" fill="#ede9fe" stroke="#8b5cf6" stroke-width="1.5" />
    <text x="80" y="35" fill="#3b0764" font-size="12" font-weight="bold" text-anchor="middle">Analyze an Image</text>
    <text x="80" y="52" fill="#6d28d9" font-size="10" text-anchor="middle">Analyse OCR &amp; Données</text>
    <rect x="10" y="10" width="16" height="16" rx="3" fill="#8b5cf6" opacity="0.2" />
    <text x="18" y="22" fill="#5b21b6" font-size="9" font-weight="bold" text-anchor="middle">👁️</text>
  </g>

  <!-- Database Lookup -->
  <g filter="url(#shadow)" transform="translate(740, 720)">
    <rect width="130" height="80" rx="10" fill="#f8fafc" stroke="#64748b" stroke-width="1.5" />
    <text x="65" y="35" fill="#0f172a" font-size="12" font-weight="bold" text-anchor="middle">Get Many Rows</text>
    <text x="65" y="52" fill="#475569" font-size="10" text-anchor="middle">Lecture Supabase BDD</text>
    <rect x="10" y="10" width="16" height="16" rx="3" fill="#64748b" opacity="0.2" />
    <text x="18" y="22" fill="#334155" font-size="9" font-weight="bold" text-anchor="middle">🔍</text>
  </g>

  <!-- IF Condition -->
  <g filter="url(#shadow)" transform="translate(920, 720)">
    <polygon points="75,0 150,40 75,80 0,40" fill="#f3e8ff" stroke="#a855f7" stroke-width="2" />
    <text x="75" y="36" fill="#5b21b6" font-size="13" font-weight="bold" text-anchor="middle">Condition</text>
    <text x="75" y="50" fill="#7c3aed" font-size="10" text-anchor="middle">IF (Valide ?)</text>
  </g>

  <!-- True path: Update Row -->
  <g filter="url(#shadow)" transform="translate(1100, 660)">
    <rect width="160" height="80" rx="10" fill="#ecfdf5" stroke="#10b981" stroke-width="1.5" />
    <text x="80" y="35" fill="#064e3b" font-size="12" font-weight="bold" text-anchor="middle">Update a Row</text>
    <text x="80" y="52" fill="#047857" font-size="10" text-anchor="middle">BDD : Statut mis à jour</text>
    <rect x="10" y="10" width="16" height="16" rx="3" fill="#10b981" opacity="0.2" />
    <text x="18" y="22" fill="#065f46" font-size="9" font-weight="bold" text-anchor="middle">📝</text>
  </g>

  <!-- True path: Send Valid notification -->
  <g filter="url(#shadow)" transform="translate(1290, 660)">
    <rect width="160" height="80" rx="10" fill="#e8f5e9" stroke="#4caf50" stroke-width="1.5" />
    <text x="80" y="35" fill="#1b5e20" font-size="12" font-weight="bold" text-anchor="middle">Reçu Validé</text>
    <text x="80" y="52" fill="#2e7d32" font-size="10" text-anchor="middle">WhatsApp : Notification OK</text>
    <rect x="10" y="10" width="16" height="16" rx="3" fill="#4caf50" opacity="0.2" />
    <text x="18" y="22" fill="#1b5e20" font-size="9" font-weight="bold" text-anchor="middle">✅</text>
  </g>

  <!-- False path: Send Invalid notification -->
  <g filter="url(#shadow)" transform="translate(1100, 780)">
    <rect width="160" height="80" rx="10" fill="#fef2f2" stroke="#ef4444" stroke-width="1.5" />
    <text x="80" y="35" fill="#7f1d1d" font-size="12" font-weight="bold" text-anchor="middle">Reçu Non Validé</text>
    <text x="80" y="52" fill="#b91c1c" font-size="10" text-anchor="middle">WhatsApp : Alerte Échec</text>
    <rect x="10" y="10" width="16" height="16" rx="3" fill="#ef4444" opacity="0.2" />
    <text x="18" y="22" fill="#7f1d1d" font-size="9" font-weight="bold" text-anchor="middle">❌</text>
  </g>

</svg>
